<svg width="64" height="64" viewBox="0 0 64 64" fill="none" xmlns="http://www.w3.org/2000/svg">
<path d="M7 39.0001H57.991C58.2562 38.9976 58.5172 39.0662 58.7469 39.1988C58.9766 39.3314 59.1665 39.5232 59.297 39.7541C60.4125 41.6466 61.0009 43.8033 61.0009 46.0001C61.0009 48.1969 60.4125 50.3536 59.297 52.2461C59.1665 52.477 58.9766 52.6687 58.7469 52.8013C58.5172 52.9339 58.2562 53.0026 57.991 53.0001H7" fill="#E5E5E5"/>
<path d="M59 34C58.7671 34.3105 58.4652 34.5625 58.118 34.7361C57.7709 34.9096 57.3881 35 57 35C56.6119 35 56.2291 34.9096 55.882 34.7361C55.5348 34.5625 55.2329 34.3105 55 34L56 24H58L59 34Z" fill="#4F4F4F"/>
<path d="M58 13H56V20H58V13Z" fill="#4F4F4F"/>
<path d="M47 16V31.222C37 36.2593 27 36.2593 17 31.222V17L47 16Z" fill="#4F4F4F"/>
<path d="M57.031 14.118L32.242 22.959C32.0854 23.0141 31.9146 23.0141 31.758 22.959L6.969 14.118C6.71176 14.0546 6.48047 13.9131 6.30695 13.7129C6.13343 13.5127 6.0262 13.2637 6 13C6.0262 12.7364 6.13343 12.4874 6.30695 12.2871C6.48047 12.0869 6.71176 11.9454 6.969 11.882L31.758 3.04104C31.9146 2.986 32.0854 2.986 32.242 3.04104L57.031 11.882C57.2882 11.9454 57.5195 12.0869 57.693 12.2871C57.8666 12.4874 57.9738 12.7364 58 13C57.9738 13.2637 57.8666 13.5127 57.693 13.7129C57.5195 13.9131 57.2882 14.0546 57.031 14.118Z" fill="#5E5E5D"/>
<path d="M57 25C58.6569 25 60 23.6569 60 22C60 20.3431 58.6569 19 57 19C55.3431 19 54 20.3431 54 22C54 23.6569 55.3431 25 57 25Z" fill="#5E5E5D"/>
<path d="M7 53C9.20914 53 11 49.866 11 46C11 42.134 9.20914 39 7 39C4.79086 39 3 42.134 3 46C3 49.866 4.79086 53 7 53Z" fill="#D3D3D3"/>
<path d="M34 53H28C29.3073 50.8992 30.0002 48.4743 30.0002 46C30.0002 43.5257 29.3073 41.1008 28 39H34C35.3073 41.1008 36.0002 43.5257 36.0002 46C36.0002 48.4743 35.3073 50.8992 34 53Z" fill="#FFD700"/>
<path d="M34.784 58.892L31.057 57.029C31.04 57.0204 31.0209 57.0169 31.0019 57.0189C30.983 57.0208 30.965 57.0282 30.95 57.04L26.231 60.815C26.2148 60.8275 26.1952 60.8348 26.1747 60.8358C26.1542 60.8368 26.1339 60.8315 26.1166 60.8206C26.0992 60.8097 26.0857 60.7937 26.0777 60.7748C26.0697 60.7559 26.0677 60.735 26.072 60.715L28 53H33L34.924 58.771C34.9303 58.7898 34.9309 58.8101 34.9257 58.8292C34.9204 58.8483 34.9096 58.8655 34.8946 58.8784C34.8796 58.8914 34.8611 58.8996 34.8414 58.9021C34.8217 58.9045 34.8017 58.901 34.784 58.892Z" fill="#EABF07"/>
<path d="M7 50C6.81429 50 6.63225 49.9483 6.47427 49.8507C6.3163 49.753 6.18863 49.6133 6.10558 49.4472C6.02252 49.2811 5.98737 49.0952 6.00405 48.9102C6.02072 48.7252 6.08858 48.5486 6.2 48.4C6.71929 47.7076 7 46.8655 7 46C7 45.1345 6.71929 44.2924 6.2 43.6C6.04087 43.3878 5.97255 43.1211 6.01005 42.8586C6.04756 42.596 6.18783 42.3591 6.4 42.2C6.61218 42.0409 6.87887 41.9725 7.14143 42.0101C7.40398 42.0476 7.64087 42.1878 7.8 42.4C8.57894 43.4386 9 44.7018 9 46C9 47.2982 8.57894 48.5614 7.8 49.6C7.70686 49.7242 7.58607 49.825 7.44722 49.8944C7.30836 49.9639 7.15525 50 7 50Z" fill="#B3B3B3"/>
</svg>
